<mxfile host="app.diagrams.net" modified="2020-08-26T08:00:32.726Z" agent="5.0 (Macintosh; Intel Mac OS X 10_15_6) AppleWebKit/537.36 (KHTML, like Gecko) Chrome/84.0.4147.125 Safari/537.36" etag="l3VxK6mYfOBdr7_x6hNl" version="13.3.7" type="github" pages="4">
  <diagram name="Page-1" id="82e54ff1-d628-8f03-85c4-9753963a91cd">
    <mxGraphModel dx="946" dy="623" grid="1" gridSize="10" guides="1" tooltips="1" connect="1" arrows="1" fold="1" page="1" pageScale="1" pageWidth="1100" pageHeight="850" background="#ffffff" math="0" shadow="0">
      <root>
        <mxCell id="0" />
        <mxCell id="1" parent="0" />
        <mxCell id="4ec97bd9e5d20128-1" value="" style="line;strokeWidth=2;html=1;fillColor=none;fontSize=28;fontColor=#004D99;strokeColor=#004D99;" parent="1" vertex="1">
          <mxGeometry x="40" y="400" width="1000" height="10" as="geometry" />
        </mxCell>
        <mxCell id="4ec97bd9e5d20128-5" value="Stage 1" style="shape=offPageConnector;whiteSpace=wrap;html=1;fillColor=#0075E8;fontSize=15;fontColor=#FFFFFF;size=0.5093750000000015;verticalAlign=top;strokeColor=none;" parent="1" vertex="1">
          <mxGeometry x="120" y="340" width="160" height="40" as="geometry" />
        </mxCell>
        <mxCell id="4ec97bd9e5d20128-6" value="&lt;span&gt;Stage 3&lt;/span&gt;" style="shape=offPageConnector;whiteSpace=wrap;html=1;fillColor=#0075E8;fontSize=15;fontColor=#FFFFFF;size=0.5093750000000015;verticalAlign=top;strokeColor=none;" parent="1" vertex="1">
          <mxGeometry x="573" y="340" width="160" height="40" as="geometry" />
        </mxCell>
        <mxCell id="4ec97bd9e5d20128-7" value="&lt;span&gt;Stage 2&lt;/span&gt;" style="shape=offPageConnector;whiteSpace=wrap;html=1;fillColor=#0075E8;fontSize=15;fontColor=#FFFFFF;size=0.4178571428571445;flipV=1;verticalAlign=bottom;strokeColor=none;spacingBottom=4;" parent="1" vertex="1">
          <mxGeometry x="347" y="425" width="160" height="35" as="geometry" />
        </mxCell>
        <mxCell id="4ec97bd9e5d20128-8" value="&lt;span&gt;Stage 4&lt;/span&gt;" style="shape=offPageConnector;whiteSpace=wrap;html=1;fillColor=#0075E8;fontSize=15;fontColor=#FFFFFF;size=0.4178571428571445;flipV=1;verticalAlign=bottom;strokeColor=none;spacingBottom=4;" parent="1" vertex="1">
          <mxGeometry x="800" y="425" width="160" height="35" as="geometry" />
        </mxCell>
        <mxCell id="4ec97bd9e5d20128-9" value="" style="ellipse;whiteSpace=wrap;html=1;fillColor=#61BAFF;fontSize=28;fontColor=#004D99;strokeWidth=3;strokeColor=#004D99;" parent="1" vertex="1">
          <mxGeometry x="190" y="395" width="20" height="20" as="geometry" />
        </mxCell>
        <mxCell id="4ec97bd9e5d20128-10" value="" style="ellipse;whiteSpace=wrap;html=1;fillColor=#61BAFF;fontSize=28;fontColor=#004D99;strokeWidth=3;strokeColor=#004D99;" parent="1" vertex="1">
          <mxGeometry x="417" y="395" width="20" height="20" as="geometry" />
        </mxCell>
        <mxCell id="4ec97bd9e5d20128-11" value="" style="ellipse;whiteSpace=wrap;html=1;fillColor=#61BAFF;fontSize=28;fontColor=#004D99;strokeWidth=3;strokeColor=#004D99;" parent="1" vertex="1">
          <mxGeometry x="643" y="395" width="20" height="20" as="geometry" />
        </mxCell>
        <mxCell id="4ec97bd9e5d20128-13" value="" style="ellipse;whiteSpace=wrap;html=1;fillColor=#61BAFF;fontSize=28;fontColor=#004D99;strokeWidth=3;strokeColor=#004D99;" parent="1" vertex="1">
          <mxGeometry x="870" y="395" width="20" height="20" as="geometry" />
        </mxCell>
        <mxCell id="4ec97bd9e5d20128-14" value="&lt;h1&gt;&lt;font style=&quot;font-size: 20px&quot;&gt;调研去掉ZK&lt;/font&gt;&lt;/h1&gt;&lt;h1&gt;&lt;span style=&quot;font-size: 13px ; font-weight: 400&quot;&gt;zk组件功能单一，和etcd 功能重合，占用资源，需调研其存在的必要性，能去掉是最好的&lt;/span&gt;&lt;/h1&gt;" style="text;html=1;spacing=5;spacingTop=-20;whiteSpace=wrap;overflow=hidden;strokeColor=none;strokeWidth=3;fillColor=#E6E6E6;fontSize=13;fontColor=#000000;align=center;rounded=1;" parent="1" vertex="1">
          <mxGeometry x="93" y="430" width="217" height="150" as="geometry" />
        </mxCell>
        <mxCell id="4ec97bd9e5d20128-16" value="&lt;h1&gt;&lt;span style=&quot;font-size: 20px&quot;&gt;日志产品优化&lt;/span&gt;&lt;/h1&gt;&lt;p&gt;日志查询时间优化，日志项自定义，日志上下文的查询，节点系统日志查询。&lt;/p&gt;" style="text;html=1;spacing=5;spacingTop=-20;whiteSpace=wrap;overflow=hidden;strokeColor=none;strokeWidth=3;fillColor=#E6E6E6;fontSize=13;fontColor=#000000;align=center;rounded=1;" parent="1" vertex="1">
          <mxGeometry x="319" y="250" width="215" height="120" as="geometry" />
        </mxCell>
        <mxCell id="4ec97bd9e5d20128-17" value="&lt;h1&gt;&lt;font style=&quot;font-size: 20px&quot;&gt;架构的对比&lt;/font&gt;&lt;/h1&gt;&lt;h1&gt;&lt;p style=&quot;font-size: 13px ; font-weight: 400&quot;&gt;调研云平台日志系统的架构设计，横向对比，日志系统的优缺点。&lt;/p&gt;&lt;p style=&quot;font-size: 13px ; font-weight: 400&quot;&gt;loki（很早期），filebeat 调研&lt;/p&gt;&lt;/h1&gt;" style="text;html=1;spacing=5;spacingTop=-20;whiteSpace=wrap;overflow=hidden;strokeColor=none;strokeWidth=3;fillColor=#E6E6E6;fontSize=13;fontColor=#000000;align=center;rounded=1;" parent="1" vertex="1">
          <mxGeometry x="545" y="430" width="215" height="120" as="geometry" />
        </mxCell>
        <mxCell id="4ec97bd9e5d20128-18" value="&lt;h1&gt;&lt;font style=&quot;font-size: 20px&quot;&gt;日志推广&lt;/font&gt;&lt;/h1&gt;&lt;p&gt;日志系统希望在公司内部更广泛的使用，被吐槽&lt;/p&gt;" style="text;html=1;spacing=5;spacingTop=-20;whiteSpace=wrap;overflow=hidden;strokeColor=none;strokeWidth=3;fillColor=#E6E6E6;fontSize=13;fontColor=#000000;align=center;rounded=1;" parent="1" vertex="1">
          <mxGeometry x="773" y="250" width="215" height="120" as="geometry" />
        </mxCell>
      </root>
    </mxGraphModel>
  </diagram>
  <diagram id="ht4IqLlvfnERnte_HmLZ" name="Page-2">
    <mxGraphModel dx="1892" dy="1148" grid="1" gridSize="10" guides="1" tooltips="1" connect="1" arrows="1" fold="1" page="1" pageScale="1" pageWidth="827" pageHeight="1169" math="0" shadow="0">
      <root>
        <mxCell id="OZ5C_04dNZwQXREDjlzZ-0" />
        <mxCell id="OZ5C_04dNZwQXREDjlzZ-1" parent="OZ5C_04dNZwQXREDjlzZ-0" />
        <mxCell id="_XDqKt-72Psl01ZfpIzY-0" value="&lt;font style=&quot;font-size: 18px&quot;&gt;Global&lt;/font&gt;" style="rounded=0;whiteSpace=wrap;html=1;" vertex="1" parent="OZ5C_04dNZwQXREDjlzZ-1">
          <mxGeometry x="400" y="390" width="230" height="130" as="geometry" />
        </mxCell>
        <mxCell id="_XDqKt-72Psl01ZfpIzY-1" value="" style="html=1;dashed=0;whitespace=wrap;fillColor=#2875E2;strokeColor=#ffffff;points=[[0.005,0.63,0],[0.1,0.2,0],[0.9,0.2,0],[0.5,0,0],[0.995,0.63,0],[0.72,0.99,0],[0.5,1,0],[0.28,0.99,0]];shape=mxgraph.kubernetes.icon;prIcon=node" vertex="1" parent="OZ5C_04dNZwQXREDjlzZ-1">
          <mxGeometry x="400" y="470" width="50" height="48" as="geometry" />
        </mxCell>
        <mxCell id="_XDqKt-72Psl01ZfpIzY-2" value="" style="html=1;dashed=0;whitespace=wrap;fillColor=#2875E2;strokeColor=#ffffff;points=[[0.005,0.63,0],[0.1,0.2,0],[0.9,0.2,0],[0.5,0,0],[0.995,0.63,0],[0.72,0.99,0],[0.5,1,0],[0.28,0.99,0]];shape=mxgraph.kubernetes.icon;prIcon=node" vertex="1" parent="OZ5C_04dNZwQXREDjlzZ-1">
          <mxGeometry x="580" y="470" width="50" height="48" as="geometry" />
        </mxCell>
        <mxCell id="_XDqKt-72Psl01ZfpIzY-5" value="" style="aspect=fixed;html=1;points=[];align=center;image;fontSize=12;image=img/lib/mscae/Kubernetes_Services.svg;" vertex="1" parent="OZ5C_04dNZwQXREDjlzZ-1">
          <mxGeometry x="290" y="590" width="81.08" height="60" as="geometry" />
        </mxCell>
        <mxCell id="_XDqKt-72Psl01ZfpIzY-6" value="" style="aspect=fixed;html=1;points=[];align=center;image;fontSize=12;image=img/lib/mscae/Kubernetes_Services.svg;" vertex="1" parent="OZ5C_04dNZwQXREDjlzZ-1">
          <mxGeometry x="474.46" y="590" width="81.08" height="60" as="geometry" />
        </mxCell>
        <mxCell id="_XDqKt-72Psl01ZfpIzY-7" value="" style="aspect=fixed;html=1;points=[];align=center;image;fontSize=12;image=img/lib/mscae/Kubernetes_Services.svg;" vertex="1" parent="OZ5C_04dNZwQXREDjlzZ-1">
          <mxGeometry x="670" y="590" width="81.08" height="60" as="geometry" />
        </mxCell>
        <mxCell id="_XDqKt-72Psl01ZfpIzY-8" value="" style="html=1;dashed=0;whitespace=wrap;fillColor=#2875E2;strokeColor=#ffffff;points=[[0.005,0.63,0],[0.1,0.2,0],[0.9,0.2,0],[0.5,0,0],[0.995,0.63,0],[0.72,0.99,0],[0.5,1,0],[0.28,0.99,0]];shape=mxgraph.kubernetes.icon;prIcon=node" vertex="1" parent="OZ5C_04dNZwQXREDjlzZ-1">
          <mxGeometry x="490" y="470" width="50" height="48" as="geometry" />
        </mxCell>
        <mxCell id="_XDqKt-72Psl01ZfpIzY-9" value="...." style="text;html=1;resizable=0;autosize=1;align=center;verticalAlign=middle;points=[];fillColor=none;strokeColor=none;rounded=0;" vertex="1" parent="OZ5C_04dNZwQXREDjlzZ-1">
          <mxGeometry x="450" y="484" width="30" height="20" as="geometry" />
        </mxCell>
        <mxCell id="_XDqKt-72Psl01ZfpIzY-10" value="...." style="text;html=1;resizable=0;autosize=1;align=center;verticalAlign=middle;points=[];fillColor=none;strokeColor=none;rounded=0;" vertex="1" parent="OZ5C_04dNZwQXREDjlzZ-1">
          <mxGeometry x="540" y="484" width="30" height="20" as="geometry" />
        </mxCell>
        <mxCell id="_XDqKt-72Psl01ZfpIzY-11" value="" style="edgeStyle=elbowEdgeStyle;elbow=horizontal;endArrow=classic;html=1;exitX=0.5;exitY=1;exitDx=0;exitDy=0;exitPerimeter=0;" edge="1" parent="OZ5C_04dNZwQXREDjlzZ-1" source="_XDqKt-72Psl01ZfpIzY-1" target="_XDqKt-72Psl01ZfpIzY-5">
          <mxGeometry width="50" height="50" relative="1" as="geometry">
            <mxPoint x="650" y="570" as="sourcePoint" />
            <mxPoint x="700" y="520" as="targetPoint" />
            <Array as="points">
              <mxPoint x="425" y="580" />
            </Array>
          </mxGeometry>
        </mxCell>
        <mxCell id="_XDqKt-72Psl01ZfpIzY-12" value="" style="edgeStyle=elbowEdgeStyle;elbow=horizontal;endArrow=classic;html=1;exitX=0.5;exitY=1;exitDx=0;exitDy=0;exitPerimeter=0;entryX=0.5;entryY=-0.033;entryDx=0;entryDy=0;entryPerimeter=0;" edge="1" parent="OZ5C_04dNZwQXREDjlzZ-1" source="_XDqKt-72Psl01ZfpIzY-8" target="_XDqKt-72Psl01ZfpIzY-6">
          <mxGeometry width="50" height="50" relative="1" as="geometry">
            <mxPoint x="435" y="528" as="sourcePoint" />
            <mxPoint x="381.0799999999999" y="630" as="targetPoint" />
            <Array as="points">
              <mxPoint x="515" y="560" />
            </Array>
          </mxGeometry>
        </mxCell>
        <mxCell id="_XDqKt-72Psl01ZfpIzY-13" value="" style="edgeStyle=elbowEdgeStyle;elbow=horizontal;endArrow=classic;html=1;" edge="1" parent="OZ5C_04dNZwQXREDjlzZ-1">
          <mxGeometry width="50" height="50" relative="1" as="geometry">
            <mxPoint x="605" y="520" as="sourcePoint" />
            <mxPoint x="660" y="620" as="targetPoint" />
            <Array as="points">
              <mxPoint x="605" y="570" />
            </Array>
          </mxGeometry>
        </mxCell>
        <mxCell id="_XDqKt-72Psl01ZfpIzY-14" value="edge cloud" style="text;html=1;resizable=0;autosize=1;align=center;verticalAlign=middle;points=[];fillColor=none;strokeColor=none;rounded=0;fontSize=16;" vertex="1" parent="OZ5C_04dNZwQXREDjlzZ-1">
          <mxGeometry x="290" y="670" width="90" height="20" as="geometry" />
        </mxCell>
        <mxCell id="_XDqKt-72Psl01ZfpIzY-15" value="edge cloud" style="text;html=1;resizable=0;autosize=1;align=center;verticalAlign=middle;points=[];fillColor=none;strokeColor=none;rounded=0;fontSize=16;" vertex="1" parent="OZ5C_04dNZwQXREDjlzZ-1">
          <mxGeometry x="674" y="670" width="90" height="20" as="geometry" />
        </mxCell>
        <mxCell id="_XDqKt-72Psl01ZfpIzY-16" value="edge cloud" style="text;html=1;resizable=0;autosize=1;align=center;verticalAlign=middle;points=[];fillColor=none;strokeColor=none;rounded=0;fontSize=16;" vertex="1" parent="OZ5C_04dNZwQXREDjlzZ-1">
          <mxGeometry x="480" y="670" width="90" height="20" as="geometry" />
        </mxCell>
        <mxCell id="_XDqKt-72Psl01ZfpIzY-17" value="&lt;font style=&quot;font-size: 18px&quot;&gt;Cluster1&lt;/font&gt;" style="rounded=0;whiteSpace=wrap;html=1;" vertex="1" parent="OZ5C_04dNZwQXREDjlzZ-1">
          <mxGeometry x="760" y="390" width="220" height="130" as="geometry" />
        </mxCell>
        <mxCell id="_XDqKt-72Psl01ZfpIzY-18" value="&lt;font style=&quot;font-size: 18px&quot;&gt;ClusterN&lt;/font&gt;" style="rounded=0;whiteSpace=wrap;html=1;" vertex="1" parent="OZ5C_04dNZwQXREDjlzZ-1">
          <mxGeometry x="1087" y="390" width="213" height="130" as="geometry" />
        </mxCell>
        <mxCell id="_XDqKt-72Psl01ZfpIzY-19" value="" style="edgeStyle=elbowEdgeStyle;elbow=horizontal;endArrow=classic;html=1;fontSize=16;exitX=1;exitY=0.5;exitDx=0;exitDy=0;entryX=0;entryY=0.5;entryDx=0;entryDy=0;" edge="1" parent="OZ5C_04dNZwQXREDjlzZ-1" source="_XDqKt-72Psl01ZfpIzY-0" target="_XDqKt-72Psl01ZfpIzY-17">
          <mxGeometry width="50" height="50" relative="1" as="geometry">
            <mxPoint x="810" y="720" as="sourcePoint" />
            <mxPoint x="860" y="670" as="targetPoint" />
          </mxGeometry>
        </mxCell>
        <mxCell id="_XDqKt-72Psl01ZfpIzY-22" value="...." style="rounded=0;whiteSpace=wrap;html=1;fontSize=16;labelBackgroundColor=none;gradientColor=#ffffff;strokeColor=none;fillColor=none;" vertex="1" parent="OZ5C_04dNZwQXREDjlzZ-1">
          <mxGeometry x="990" y="440" width="80" height="30" as="geometry" />
        </mxCell>
        <mxCell id="_XDqKt-72Psl01ZfpIzY-23" value="" style="edgeStyle=elbowEdgeStyle;elbow=vertical;endArrow=classic;html=1;fontSize=16;entryX=0.5;entryY=1;entryDx=0;entryDy=0;" edge="1" parent="OZ5C_04dNZwQXREDjlzZ-1" target="_XDqKt-72Psl01ZfpIzY-18">
          <mxGeometry width="50" height="50" relative="1" as="geometry">
            <mxPoint x="710" y="455" as="sourcePoint" />
            <mxPoint x="900" y="560" as="targetPoint" />
            <Array as="points">
              <mxPoint x="680" y="550" />
              <mxPoint x="930" y="550" />
              <mxPoint x="760" y="560" />
            </Array>
          </mxGeometry>
        </mxCell>
      </root>
    </mxGraphModel>
  </diagram>
  <diagram id="_YGoIVNmt6jqwaIU8XRX" name="Page-3">
    <mxGraphModel dx="1577" dy="957" grid="1" gridSize="10" guides="1" tooltips="1" connect="1" arrows="1" fold="1" page="1" pageScale="1" pageWidth="827" pageHeight="1169" math="0" shadow="0">
      <root>
        <mxCell id="rkkVSI14mO0fIxphIVpx-0" />
        <mxCell id="rkkVSI14mO0fIxphIVpx-1" parent="rkkVSI14mO0fIxphIVpx-0" />
        <mxCell id="jBrHjbzRqe_3gDF7UGPj-0" value="&lt;font style=&quot;font-size: 18px&quot;&gt;Global&lt;/font&gt;" style="rounded=0;whiteSpace=wrap;html=1;" vertex="1" parent="rkkVSI14mO0fIxphIVpx-1">
          <mxGeometry x="370" y="390" width="230" height="130" as="geometry" />
        </mxCell>
        <mxCell id="jBrHjbzRqe_3gDF7UGPj-3" value="" style="aspect=fixed;html=1;points=[];align=center;image;fontSize=12;image=img/lib/mscae/Kubernetes_Services.svg;" vertex="1" parent="rkkVSI14mO0fIxphIVpx-1">
          <mxGeometry x="260" y="590" width="81.08" height="60" as="geometry" />
        </mxCell>
        <mxCell id="jBrHjbzRqe_3gDF7UGPj-4" value="" style="aspect=fixed;html=1;points=[];align=center;image;fontSize=12;image=img/lib/mscae/Kubernetes_Services.svg;" vertex="1" parent="rkkVSI14mO0fIxphIVpx-1">
          <mxGeometry x="444.46" y="590" width="81.08" height="60" as="geometry" />
        </mxCell>
        <mxCell id="jBrHjbzRqe_3gDF7UGPj-5" value="" style="aspect=fixed;html=1;points=[];align=center;image;fontSize=12;image=img/lib/mscae/Kubernetes_Services.svg;" vertex="1" parent="rkkVSI14mO0fIxphIVpx-1">
          <mxGeometry x="640" y="590" width="81.08" height="60" as="geometry" />
        </mxCell>
        <mxCell id="jBrHjbzRqe_3gDF7UGPj-9" value="" style="edgeStyle=elbowEdgeStyle;elbow=horizontal;endArrow=classic;html=1;exitX=0.5;exitY=1;exitDx=0;exitDy=0;exitPerimeter=0;" edge="1" parent="rkkVSI14mO0fIxphIVpx-1" target="jBrHjbzRqe_3gDF7UGPj-3">
          <mxGeometry width="50" height="50" relative="1" as="geometry">
            <mxPoint x="395.0000000000002" y="517.9999999999998" as="sourcePoint" />
            <mxPoint x="670" y="520" as="targetPoint" />
            <Array as="points">
              <mxPoint x="395" y="580" />
            </Array>
          </mxGeometry>
        </mxCell>
        <mxCell id="jBrHjbzRqe_3gDF7UGPj-10" value="" style="edgeStyle=elbowEdgeStyle;elbow=horizontal;endArrow=classic;html=1;exitX=0.5;exitY=1;exitDx=0;exitDy=0;exitPerimeter=0;entryX=0.5;entryY=-0.033;entryDx=0;entryDy=0;entryPerimeter=0;" edge="1" parent="rkkVSI14mO0fIxphIVpx-1" target="jBrHjbzRqe_3gDF7UGPj-4">
          <mxGeometry width="50" height="50" relative="1" as="geometry">
            <mxPoint x="485.0000000000002" y="517.9999999999998" as="sourcePoint" />
            <mxPoint x="351.0799999999999" y="630" as="targetPoint" />
            <Array as="points">
              <mxPoint x="485" y="560" />
            </Array>
          </mxGeometry>
        </mxCell>
        <mxCell id="jBrHjbzRqe_3gDF7UGPj-11" value="" style="edgeStyle=elbowEdgeStyle;elbow=horizontal;endArrow=classic;html=1;" edge="1" parent="rkkVSI14mO0fIxphIVpx-1">
          <mxGeometry width="50" height="50" relative="1" as="geometry">
            <mxPoint x="575" y="520" as="sourcePoint" />
            <mxPoint x="630" y="620" as="targetPoint" />
            <Array as="points">
              <mxPoint x="575" y="570" />
            </Array>
          </mxGeometry>
        </mxCell>
        <mxCell id="jBrHjbzRqe_3gDF7UGPj-12" value="K3S" style="text;html=1;resizable=0;autosize=1;align=center;verticalAlign=middle;points=[];fillColor=none;strokeColor=none;rounded=0;fontSize=16;" vertex="1" parent="rkkVSI14mO0fIxphIVpx-1">
          <mxGeometry x="280" y="670" width="50" height="20" as="geometry" />
        </mxCell>
        <mxCell id="jBrHjbzRqe_3gDF7UGPj-15" value="&lt;font style=&quot;font-size: 18px&quot;&gt;Cluster1&lt;/font&gt;" style="rounded=0;whiteSpace=wrap;html=1;" vertex="1" parent="rkkVSI14mO0fIxphIVpx-1">
          <mxGeometry x="730" y="390" width="220" height="130" as="geometry" />
        </mxCell>
        <mxCell id="jBrHjbzRqe_3gDF7UGPj-16" value="&lt;font style=&quot;font-size: 18px&quot;&gt;ClusterN&lt;/font&gt;" style="rounded=0;whiteSpace=wrap;html=1;" vertex="1" parent="rkkVSI14mO0fIxphIVpx-1">
          <mxGeometry x="1057" y="390" width="213" height="130" as="geometry" />
        </mxCell>
        <mxCell id="jBrHjbzRqe_3gDF7UGPj-17" value="" style="edgeStyle=elbowEdgeStyle;elbow=horizontal;endArrow=classic;html=1;fontSize=16;exitX=1;exitY=0.5;exitDx=0;exitDy=0;entryX=0;entryY=0.5;entryDx=0;entryDy=0;" edge="1" parent="rkkVSI14mO0fIxphIVpx-1" source="jBrHjbzRqe_3gDF7UGPj-0" target="jBrHjbzRqe_3gDF7UGPj-15">
          <mxGeometry width="50" height="50" relative="1" as="geometry">
            <mxPoint x="780" y="720" as="sourcePoint" />
            <mxPoint x="830" y="670" as="targetPoint" />
          </mxGeometry>
        </mxCell>
        <mxCell id="jBrHjbzRqe_3gDF7UGPj-18" value="...." style="rounded=0;whiteSpace=wrap;html=1;fontSize=16;labelBackgroundColor=none;gradientColor=#ffffff;strokeColor=none;fillColor=none;" vertex="1" parent="rkkVSI14mO0fIxphIVpx-1">
          <mxGeometry x="960" y="440" width="80" height="30" as="geometry" />
        </mxCell>
        <mxCell id="jBrHjbzRqe_3gDF7UGPj-19" value="" style="edgeStyle=elbowEdgeStyle;elbow=vertical;endArrow=classic;html=1;fontSize=16;entryX=0.5;entryY=1;entryDx=0;entryDy=0;" edge="1" parent="rkkVSI14mO0fIxphIVpx-1" target="jBrHjbzRqe_3gDF7UGPj-16">
          <mxGeometry width="50" height="50" relative="1" as="geometry">
            <mxPoint x="680" y="455" as="sourcePoint" />
            <mxPoint x="870" y="560" as="targetPoint" />
            <Array as="points">
              <mxPoint x="650" y="550" />
              <mxPoint x="900" y="550" />
              <mxPoint x="730" y="560" />
            </Array>
          </mxGeometry>
        </mxCell>
        <mxCell id="jBrHjbzRqe_3gDF7UGPj-20" value="K3S" style="text;html=1;resizable=0;autosize=1;align=center;verticalAlign=middle;points=[];fillColor=none;strokeColor=none;rounded=0;fontSize=16;" vertex="1" parent="rkkVSI14mO0fIxphIVpx-1">
          <mxGeometry x="655.54" y="670" width="50" height="20" as="geometry" />
        </mxCell>
        <mxCell id="jBrHjbzRqe_3gDF7UGPj-21" value="K3S" style="text;html=1;resizable=0;autosize=1;align=center;verticalAlign=middle;points=[];fillColor=none;strokeColor=none;rounded=0;fontSize=16;" vertex="1" parent="rkkVSI14mO0fIxphIVpx-1">
          <mxGeometry x="460" y="670" width="50" height="20" as="geometry" />
        </mxCell>
      </root>
    </mxGraphModel>
  </diagram>
  <diagram id="WFN5CKdDvqW_JnO2cM5m" name="Page-4">
    <mxGraphModel dx="1351" dy="820" grid="1" gridSize="10" guides="1" tooltips="1" connect="1" arrows="1" fold="1" page="1" pageScale="1" pageWidth="827" pageHeight="1169" math="0" shadow="0">
      <root>
        <mxCell id="PMjZcKHp0ERPgWEzIxGm-0" />
        <mxCell id="PMjZcKHp0ERPgWEzIxGm-1" parent="PMjZcKHp0ERPgWEzIxGm-0" />
        <mxCell id="ypBdHGA2W1JyL_fM4T9n-16" value="&lt;font style=&quot;font-size: 18px&quot;&gt;ClusterN&lt;/font&gt;" style="rounded=0;whiteSpace=wrap;html=1;" vertex="1" parent="PMjZcKHp0ERPgWEzIxGm-1">
          <mxGeometry x="1017" y="160" width="213" height="130" as="geometry" />
        </mxCell>
        <mxCell id="ypBdHGA2W1JyL_fM4T9n-15" value="&lt;font style=&quot;font-size: 18px&quot;&gt;Cluster1&lt;/font&gt;" style="rounded=0;whiteSpace=wrap;html=1;" vertex="1" parent="PMjZcKHp0ERPgWEzIxGm-1">
          <mxGeometry x="690" y="160" width="220" height="130" as="geometry" />
        </mxCell>
        <mxCell id="ypBdHGA2W1JyL_fM4T9n-0" value="&lt;font style=&quot;font-size: 18px&quot;&gt;Global&lt;/font&gt;" style="rounded=0;whiteSpace=wrap;html=1;" vertex="1" parent="PMjZcKHp0ERPgWEzIxGm-1">
          <mxGeometry x="330" y="160" width="230" height="130" as="geometry" />
        </mxCell>
        <mxCell id="ypBdHGA2W1JyL_fM4T9n-1" value="" style="html=1;dashed=0;whitespace=wrap;fillColor=#2875E2;strokeColor=#ffffff;points=[[0.005,0.63,0],[0.1,0.2,0],[0.9,0.2,0],[0.5,0,0],[0.995,0.63,0],[0.72,0.99,0],[0.5,1,0],[0.28,0.99,0]];shape=mxgraph.kubernetes.icon;prIcon=node" vertex="1" parent="PMjZcKHp0ERPgWEzIxGm-1">
          <mxGeometry x="710" y="162" width="50" height="48" as="geometry" />
        </mxCell>
        <mxCell id="ypBdHGA2W1JyL_fM4T9n-2" value="" style="html=1;dashed=0;whitespace=wrap;fillColor=#2875E2;strokeColor=#ffffff;points=[[0.005,0.63,0],[0.1,0.2,0],[0.9,0.2,0],[0.5,0,0],[0.995,0.63,0],[0.72,0.99,0],[0.5,1,0],[0.28,0.99,0]];shape=mxgraph.kubernetes.icon;prIcon=node" vertex="1" parent="PMjZcKHp0ERPgWEzIxGm-1">
          <mxGeometry x="840" y="162" width="50" height="48" as="geometry" />
        </mxCell>
        <mxCell id="ypBdHGA2W1JyL_fM4T9n-3" value="" style="aspect=fixed;html=1;points=[];align=center;image;fontSize=12;image=img/lib/mscae/Kubernetes_Services.svg;" vertex="1" parent="PMjZcKHp0ERPgWEzIxGm-1">
          <mxGeometry x="1030" y="40" width="81.08" height="60" as="geometry" />
        </mxCell>
        <mxCell id="ypBdHGA2W1JyL_fM4T9n-22" value="" style="aspect=fixed;html=1;points=[];align=center;image;fontSize=12;image=img/lib/mscae/Kubernetes_Services.svg;" vertex="1" parent="PMjZcKHp0ERPgWEzIxGm-1">
          <mxGeometry x="1191.08" y="40" width="81.08" height="60" as="geometry" />
        </mxCell>
        <mxCell id="ypBdHGA2W1JyL_fM4T9n-4" value="" style="aspect=fixed;html=1;points=[];align=center;image;fontSize=12;image=img/lib/mscae/Kubernetes_Services.svg;" vertex="1" parent="PMjZcKHp0ERPgWEzIxGm-1">
          <mxGeometry x="838.92" y="40" width="81.08" height="60" as="geometry" />
        </mxCell>
        <mxCell id="ypBdHGA2W1JyL_fM4T9n-5" value="" style="aspect=fixed;html=1;points=[];align=center;image;fontSize=12;image=img/lib/mscae/Kubernetes_Services.svg;" vertex="1" parent="PMjZcKHp0ERPgWEzIxGm-1">
          <mxGeometry x="700" y="40" width="81.08" height="60" as="geometry" />
        </mxCell>
        <mxCell id="ypBdHGA2W1JyL_fM4T9n-6" value="" style="html=1;dashed=0;whitespace=wrap;fillColor=#2875E2;strokeColor=#ffffff;points=[[0.005,0.63,0],[0.1,0.2,0],[0.9,0.2,0],[0.5,0,0],[0.995,0.63,0],[0.72,0.99,0],[0.5,1,0],[0.28,0.99,0]];shape=mxgraph.kubernetes.icon;prIcon=node" vertex="1" parent="PMjZcKHp0ERPgWEzIxGm-1">
          <mxGeometry x="1040" y="162" width="50" height="48" as="geometry" />
        </mxCell>
        <mxCell id="ypBdHGA2W1JyL_fM4T9n-12" value="edge cloud" style="text;html=1;resizable=0;autosize=1;align=center;verticalAlign=middle;points=[];fillColor=none;strokeColor=none;rounded=0;fontSize=16;" vertex="1" parent="PMjZcKHp0ERPgWEzIxGm-1">
          <mxGeometry x="691.0799999999999" width="90" height="20" as="geometry" />
        </mxCell>
        <mxCell id="ypBdHGA2W1JyL_fM4T9n-13" value="edge cloud" style="text;html=1;resizable=0;autosize=1;align=center;verticalAlign=middle;points=[];fillColor=none;strokeColor=none;rounded=0;fontSize=16;" vertex="1" parent="PMjZcKHp0ERPgWEzIxGm-1">
          <mxGeometry x="1025.54" width="90" height="20" as="geometry" />
        </mxCell>
        <mxCell id="ypBdHGA2W1JyL_fM4T9n-14" value="edge cloud" style="text;html=1;resizable=0;autosize=1;align=center;verticalAlign=middle;points=[];fillColor=none;strokeColor=none;rounded=0;fontSize=16;" vertex="1" parent="PMjZcKHp0ERPgWEzIxGm-1">
          <mxGeometry x="850" width="90" height="20" as="geometry" />
        </mxCell>
        <mxCell id="ypBdHGA2W1JyL_fM4T9n-17" value="" style="edgeStyle=elbowEdgeStyle;elbow=horizontal;endArrow=classic;html=1;fontSize=16;exitX=1;exitY=0.5;exitDx=0;exitDy=0;entryX=0;entryY=0.5;entryDx=0;entryDy=0;" edge="1" parent="PMjZcKHp0ERPgWEzIxGm-1" source="ypBdHGA2W1JyL_fM4T9n-0" target="ypBdHGA2W1JyL_fM4T9n-15">
          <mxGeometry width="50" height="50" relative="1" as="geometry">
            <mxPoint x="740" y="490" as="sourcePoint" />
            <mxPoint x="790" y="440" as="targetPoint" />
          </mxGeometry>
        </mxCell>
        <mxCell id="ypBdHGA2W1JyL_fM4T9n-18" value="...." style="rounded=0;whiteSpace=wrap;html=1;fontSize=16;labelBackgroundColor=none;gradientColor=#ffffff;strokeColor=none;fillColor=none;" vertex="1" parent="PMjZcKHp0ERPgWEzIxGm-1">
          <mxGeometry x="920" y="210" width="80" height="30" as="geometry" />
        </mxCell>
        <mxCell id="ypBdHGA2W1JyL_fM4T9n-19" value="" style="edgeStyle=elbowEdgeStyle;elbow=vertical;endArrow=classic;html=1;fontSize=16;entryX=0.5;entryY=1;entryDx=0;entryDy=0;" edge="1" parent="PMjZcKHp0ERPgWEzIxGm-1" target="ypBdHGA2W1JyL_fM4T9n-16">
          <mxGeometry width="50" height="50" relative="1" as="geometry">
            <mxPoint x="640" y="225" as="sourcePoint" />
            <mxPoint x="830" y="330" as="targetPoint" />
            <Array as="points">
              <mxPoint x="610" y="320" />
              <mxPoint x="860" y="320" />
              <mxPoint x="690" y="330" />
            </Array>
          </mxGeometry>
        </mxCell>
        <mxCell id="ypBdHGA2W1JyL_fM4T9n-21" value="" style="html=1;dashed=0;whitespace=wrap;fillColor=#2875E2;strokeColor=#ffffff;points=[[0.005,0.63,0],[0.1,0.2,0],[0.9,0.2,0],[0.5,0,0],[0.995,0.63,0],[0.72,0.99,0],[0.5,1,0],[0.28,0.99,0]];shape=mxgraph.kubernetes.icon;prIcon=node" vertex="1" parent="PMjZcKHp0ERPgWEzIxGm-1">
          <mxGeometry x="1170" y="162" width="50" height="48" as="geometry" />
        </mxCell>
        <mxCell id="ypBdHGA2W1JyL_fM4T9n-24" value="edge cloud" style="text;html=1;resizable=0;autosize=1;align=center;verticalAlign=middle;points=[];fillColor=none;strokeColor=none;rounded=0;fontSize=16;" vertex="1" parent="PMjZcKHp0ERPgWEzIxGm-1">
          <mxGeometry x="1182.1599999999999" width="90" height="20" as="geometry" />
        </mxCell>
        <mxCell id="ypBdHGA2W1JyL_fM4T9n-25" value="" style="edgeStyle=segmentEdgeStyle;endArrow=classic;html=1;fontSize=16;entryX=0.428;entryY=1;entryDx=0;entryDy=0;entryPerimeter=0;" edge="1" parent="PMjZcKHp0ERPgWEzIxGm-1" target="ypBdHGA2W1JyL_fM4T9n-5">
          <mxGeometry width="50" height="50" relative="1" as="geometry">
            <mxPoint x="735" y="160" as="sourcePoint" />
            <mxPoint x="810" y="240" as="targetPoint" />
          </mxGeometry>
        </mxCell>
        <mxCell id="ypBdHGA2W1JyL_fM4T9n-26" value="" style="edgeStyle=segmentEdgeStyle;endArrow=classic;html=1;fontSize=16;entryX=0.428;entryY=1;entryDx=0;entryDy=0;entryPerimeter=0;" edge="1" parent="PMjZcKHp0ERPgWEzIxGm-1">
          <mxGeometry width="50" height="50" relative="1" as="geometry">
            <mxPoint x="865.15" y="160" as="sourcePoint" />
            <mxPoint x="864.85224" y="100" as="targetPoint" />
          </mxGeometry>
        </mxCell>
        <mxCell id="ypBdHGA2W1JyL_fM4T9n-30" value="" style="edgeStyle=segmentEdgeStyle;endArrow=classic;html=1;fontSize=16;exitX=0.231;exitY=-0.036;exitDx=0;exitDy=0;exitPerimeter=0;entryX=0.436;entryY=0.992;entryDx=0;entryDy=0;entryPerimeter=0;" edge="1" parent="PMjZcKHp0ERPgWEzIxGm-1" source="ypBdHGA2W1JyL_fM4T9n-16" target="ypBdHGA2W1JyL_fM4T9n-3">
          <mxGeometry width="50" height="50" relative="1" as="geometry">
            <mxPoint x="910" y="230" as="sourcePoint" />
            <mxPoint x="960" y="180" as="targetPoint" />
          </mxGeometry>
        </mxCell>
        <mxCell id="ypBdHGA2W1JyL_fM4T9n-31" value="" style="edgeStyle=segmentEdgeStyle;endArrow=classic;html=1;fontSize=16;entryX=0.436;entryY=0.992;entryDx=0;entryDy=0;entryPerimeter=0;" edge="1" parent="PMjZcKHp0ERPgWEzIxGm-1">
          <mxGeometry width="50" height="50" relative="1" as="geometry">
            <mxPoint x="1227" y="156" as="sourcePoint" />
            <mxPoint x="1226.73088" y="99.99999999999999" as="targetPoint" />
          </mxGeometry>
        </mxCell>
      </root>
    </mxGraphModel>
  </diagram>
</mxfile>
